<svg width="932" height="1084" viewBox="0 0 932 1084" fill="none" xmlns="http://www.w3.org/2000/svg">
<path d="M780.383 699.015C790.691 689.447 791.291 673.333 781.722 663.025C772.153 652.717 756.039 652.117 745.731 661.686C735.423 671.255 734.824 687.369 744.392 697.677C753.961 707.985 770.075 708.584 780.383 699.015Z" fill="#455A64"/>
<path d="M775.814 679.252C776.408 678.68 777.158 678.297 777.97 678.152C778.781 678.007 779.618 678.106 780.373 678.437C781.128 678.769 781.768 679.316 782.211 680.012C782.654 680.707 782.881 681.518 782.863 682.342C782.845 683.167 782.582 683.967 782.108 684.642C781.634 685.316 780.971 685.835 780.202 686.132C779.433 686.43 778.593 686.492 777.788 686.311C776.984 686.13 776.251 685.714 775.683 685.117C775.307 684.723 775.011 684.259 774.814 683.751C774.617 683.243 774.521 682.702 774.534 682.157C774.546 681.612 774.665 681.076 774.885 680.577C775.104 680.078 775.42 679.628 775.814 679.252Z" fill="#263238"/>
<path d="M774.815 692.003C775.162 691.669 775.599 691.446 776.072 691.362C776.545 691.278 777.033 691.336 777.473 691.529C777.913 691.722 778.286 692.042 778.544 692.447C778.803 692.852 778.935 693.325 778.924 693.805C778.914 694.286 778.761 694.752 778.484 695.146C778.208 695.539 777.822 695.842 777.373 696.015C776.925 696.188 776.436 696.225 775.967 696.119C775.498 696.014 775.071 695.772 774.739 695.424C774.298 694.959 774.058 694.339 774.072 693.698C774.086 693.056 774.353 692.447 774.815 692.003Z" fill="#263238"/>
<path d="M767.279 694.957C767.446 695.124 767.539 695.35 767.539 695.587C767.539 695.823 767.446 696.05 767.279 696.217C767.111 696.384 766.885 696.478 766.649 696.478C766.412 696.478 766.186 696.384 766.019 696.217C765.938 696.133 765.874 696.034 765.832 695.926C765.79 695.817 765.77 695.702 765.773 695.585C765.776 695.469 765.802 695.354 765.85 695.248C765.898 695.142 765.966 695.047 766.051 694.968C766.215 694.809 766.434 694.719 766.663 694.717C766.891 694.715 767.112 694.801 767.279 694.957Z" fill="#263238"/>
<path d="M646.926 725.162L646.459 726.867C645.883 728.824 645.883 730.905 646.459 732.862L646.926 734.568L645.22 734.101C643.264 733.519 641.181 733.519 639.225 734.101L637.52 734.568L637.987 732.862C638.574 730.907 638.574 728.822 637.987 726.867L637.52 725.162L639.225 725.629C641.181 726.21 643.264 726.21 645.22 725.629L646.926 725.162Z" fill="#F38A12"/>
<path d="M498.584 388.27L497.715 391.311C496.73 394.692 496.734 398.284 497.726 401.662L498.584 404.692L495.554 403.834C492.171 402.843 488.575 402.843 485.192 403.834L482.162 404.692L483.02 401.662C484.012 398.284 484.016 394.692 483.031 391.311L482.162 388.27L485.203 389.139C488.579 390.126 492.167 390.126 495.543 389.139L498.584 388.27Z" fill="#3355A5"/>
<path d="M493.337 254.623L493.022 255.742C492.641 256.994 492.634 258.331 493.001 259.587L493.326 260.695L492.219 260.369C490.971 259.999 489.643 259.999 488.395 260.369L487.277 260.684L487.603 259.576C487.972 258.329 487.972 257.001 487.603 255.753L487.342 254.667L488.45 254.993C489.697 255.362 491.025 255.362 492.273 254.993L493.337 254.623Z" fill="#002B8F"/>
<path d="M296.893 669.14L296.73 669.693C296.551 670.318 296.551 670.98 296.73 671.605L296.893 672.159L296.339 671.996C295.713 671.822 295.052 671.822 294.427 671.996L293.873 672.159L294.036 671.605C294.215 670.98 294.215 670.318 294.036 669.694L293.873 669.14L294.427 669.302C295.051 669.487 295.715 669.487 296.339 669.302L296.893 669.14Z" fill="#00ADEF"/>
<path d="M388.463 498.783L388.3 499.337C388.121 499.961 388.121 500.623 388.3 501.248L388.463 501.802L387.909 501.639C387.284 501.46 386.622 501.46 385.997 501.639L385.443 501.802L385.606 501.248C385.791 500.624 385.791 499.96 385.606 499.337L385.443 498.783L385.997 498.946C386.621 499.13 387.285 499.13 387.909 498.946L388.463 498.783Z" fill="#F38A12"/>
<path d="M743.09 780.141L742.927 780.694C742.742 781.318 742.742 781.982 742.927 782.606L743.09 783.16L742.536 782.997C741.912 782.812 741.248 782.812 740.624 782.997L740.07 783.16L740.233 782.606C740.418 781.982 740.418 781.318 740.233 780.694L740.07 780.141L740.624 780.303C741.248 780.488 741.912 780.488 742.536 780.303L743.09 780.141Z" fill="#5B8AFF"/>
<path d="M330.952 364.723L330.637 365.842C330.267 367.089 330.267 368.417 330.637 369.665L330.962 370.773L329.855 370.447C328.584 370.058 327.228 370.055 325.955 370.436L324.837 370.751L325.163 369.643C325.532 368.396 325.532 367.068 325.163 365.82L324.837 364.712L325.945 365.038C327.192 365.408 328.52 365.408 329.768 365.038L330.952 364.723Z" fill="#F38A12"/>
<path d="M469.605 822.695L469.29 823.813C468.923 825.057 468.919 826.38 469.28 827.626L469.616 828.744L468.498 828.408C467.252 828.047 465.929 828.051 464.685 828.419L463.567 828.733L463.892 827.626C464.256 826.377 464.256 825.051 463.892 823.803L463.567 822.695L464.674 823.021C465.923 823.384 467.249 823.384 468.498 823.021L469.605 822.695Z" fill="#EB996E"/>
<path d="M795.854 542.521L794.996 545.551C794.003 548.929 794 552.521 794.985 555.902L795.843 558.932L792.812 558.074C789.436 557.087 785.849 557.087 782.473 558.074L779.442 558.932L780.3 555.902C781.286 552.521 781.282 548.929 780.29 545.551L779.432 542.521L782.462 543.379C785.845 544.369 789.441 544.369 792.823 543.379L795.854 542.521Z" fill="#002B8F"/>
<path d="M300.323 518.148C297.216 512.74 295.69 506.567 295.92 500.334C296.149 494.1 298.125 488.057 301.622 482.891C305.118 477.726 309.996 473.647 315.698 471.118C321.4 468.589 327.697 467.713 333.873 468.589C329.506 466.818 324.813 465.995 320.104 466.174C315.395 466.353 310.778 467.53 306.558 469.627C302.338 471.723 298.611 474.692 295.624 478.337C292.637 481.982 290.458 486.219 289.231 490.769C288.004 495.319 287.757 500.077 288.507 504.73C289.256 509.382 290.985 513.822 293.579 517.756C296.173 521.691 299.572 525.029 303.553 527.551C307.533 530.074 312.004 531.722 316.669 532.387C309.779 529.606 304.023 524.592 300.323 518.148Z" fill="#CB9200"/>
<path d="M391.372 644.17L347.787 600.584L495.596 452.775C501.357 447.013 509.171 443.777 517.318 443.777C525.466 443.777 533.28 447.013 539.041 452.775C544.802 458.536 548.038 466.349 548.038 474.497C548.038 482.644 544.802 490.458 539.041 496.219L391.372 644.17Z" fill="#5B8AFF"/>
<path d="M391.372 644.17L347.787 600.584L495.596 452.775C501.357 447.013 509.171 443.777 517.318 443.777C525.466 443.777 533.28 447.013 539.041 452.775C544.802 458.536 548.038 466.349 548.038 474.497C548.038 482.644 544.802 490.458 539.041 496.219L391.372 644.17Z" fill="#455A64"/>
<path d="M541.549 493.993C541.397 494.145 531.546 484.554 519.544 472.553C507.543 460.551 497.952 450.7 498.104 450.548C498.256 450.396 508.162 460.041 520.109 471.988C532.056 483.935 541.712 493.83 541.549 493.993Z" fill="#263238"/>
<path d="M503.818 531.725C503.656 531.888 493.815 522.286 481.814 510.285C469.812 498.283 460.211 488.443 460.374 488.28C460.537 488.117 470.431 497.773 482.379 509.72C494.326 521.667 503.971 531.573 503.818 531.725Z" fill="#263238"/>
<path d="M491.728 519.636C491.576 519.484 499.896 510.904 510.312 500.488C520.728 490.072 529.308 481.752 529.46 481.904C529.612 482.057 521.303 490.626 510.877 501.053C500.45 511.479 491.902 519.81 491.728 519.636Z" fill="#263238"/>
<path d="M513.387 487.791C513.084 488.094 512.698 488.3 512.278 488.384C511.858 488.467 511.422 488.424 511.027 488.261C510.631 488.097 510.293 487.819 510.055 487.463C509.817 487.107 509.69 486.688 509.69 486.26C509.69 485.831 509.817 485.413 510.055 485.056C510.293 484.7 510.631 484.423 511.027 484.259C511.422 484.095 511.858 484.052 512.278 484.136C512.698 484.219 513.084 484.425 513.387 484.728C513.793 485.134 514.021 485.685 514.021 486.26C514.021 486.834 513.793 487.385 513.387 487.791Z" fill="#263238"/>
<path d="M500.342 500.835C500.039 501.138 499.653 501.345 499.233 501.428C498.813 501.512 498.378 501.469 497.982 501.305C497.586 501.141 497.248 500.863 497.01 500.507C496.772 500.151 496.645 499.732 496.645 499.304C496.645 498.876 496.772 498.457 497.01 498.101C497.248 497.745 497.586 497.467 497.982 497.303C498.378 497.139 498.813 497.096 499.233 497.18C499.653 497.263 500.039 497.47 500.342 497.773C500.748 498.179 500.976 498.73 500.976 499.304C500.976 499.878 500.748 500.429 500.342 500.835Z" fill="#263238"/>
<path d="M427.029 608.513C426.877 608.665 417.026 599.074 405.025 587.073C393.023 575.071 383.433 565.22 383.585 565.068C383.737 564.916 393.642 574.561 405.59 586.508C417.537 598.455 427.214 608.328 427.029 608.513Z" fill="#263238"/>
<path d="M414.941 596.424C414.789 596.272 423.109 587.692 433.525 577.276C443.941 566.86 452.521 558.54 452.673 558.693C452.825 558.845 444.516 567.414 434.09 577.841C423.663 588.267 415.115 596.598 414.941 596.424Z" fill="#263238"/>
<path d="M433.578 564.536C434.424 565.382 435.795 565.382 436.641 564.536C437.487 563.69 437.487 562.319 436.641 561.473C435.795 560.628 434.424 560.628 433.578 561.473C432.732 562.319 432.732 563.69 433.578 564.536Z" fill="#263238"/>
<path d="M420.523 577.591C421.369 578.437 422.74 578.437 423.586 577.591C424.432 576.746 424.432 575.374 423.586 574.528C422.74 573.683 421.369 573.683 420.523 574.528C419.677 575.374 419.677 576.746 420.523 577.591Z" fill="#263238"/>
<path d="M421.632 527.087C421.784 526.935 431.689 536.579 443.636 548.527C455.584 560.474 465.228 570.379 465.076 570.531C464.924 570.683 455.073 561.093 443.072 549.091C431.07 537.09 421.534 527.184 421.632 527.087Z" fill="#263238"/>
<path d="M433.697 539.153C433.545 539.001 441.865 530.421 452.281 520.005C462.696 509.589 471.277 501.27 471.429 501.422C471.581 501.574 463.272 510.143 452.845 520.57C442.419 530.997 433.86 539.316 433.697 539.153Z" fill="#263238"/>
<path d="M465.641 517.486C465.341 517.79 465.138 518.177 465.057 518.597C464.976 519.017 465.021 519.451 465.187 519.846C465.353 520.24 465.632 520.576 465.988 520.812C466.345 521.048 466.764 521.173 467.191 521.172C467.619 521.17 468.037 521.042 468.392 520.804C468.747 520.565 469.023 520.227 469.186 519.831C469.349 519.436 469.391 519.001 469.307 518.582C469.224 518.162 469.017 517.777 468.715 517.475C468.513 517.273 468.273 517.113 468.009 517.004C467.745 516.895 467.462 516.839 467.176 516.84C466.89 516.841 466.608 516.899 466.344 517.01C466.081 517.12 465.842 517.282 465.641 517.486Z" fill="#263238"/>
<path d="M452.596 530.53C452.293 530.833 452.086 531.219 452.003 531.639C451.919 532.059 451.962 532.494 452.126 532.89C452.29 533.286 452.568 533.624 452.924 533.862C453.28 534.1 453.699 534.227 454.127 534.227C454.555 534.227 454.974 534.1 455.33 533.862C455.686 533.624 455.964 533.286 456.128 532.89C456.292 532.494 456.335 532.059 456.251 531.639C456.168 531.219 455.961 530.833 455.658 530.53C455.252 530.124 454.701 529.896 454.127 529.896C453.553 529.896 453.002 530.124 452.596 530.53Z" fill="#263238"/>
<path d="M497.128 457.043C497.374 456.713 497.666 456.42 497.997 456.174C498.836 455.432 499.717 454.74 500.636 454.1C503.658 451.949 506.977 450.248 510.487 449.049C512.43 448.412 514.431 447.968 516.461 447.724C518.125 447.546 519.803 447.543 521.468 447.713C522.099 447.778 522.726 447.876 523.347 448.006C523.824 448.082 524.293 448.202 524.748 448.365C525.151 448.452 525.539 448.598 525.899 448.799C525.856 448.951 524.183 448.452 521.402 448.278C519.775 448.182 518.143 448.236 516.526 448.441C514.554 448.727 512.61 449.181 510.715 449.799C507.28 450.989 504.002 452.59 500.951 454.567C498.605 456.065 497.225 457.141 497.128 457.043Z" fill="#FAFAFA"/>
<path d="M535.12 454.306C534.968 454.458 534.078 454.046 533.057 453.329C532.036 452.612 531.33 451.884 531.449 451.721C531.569 451.558 532.503 451.971 533.524 452.688C534.545 453.405 535.261 454.122 535.12 454.306Z" fill="#FAFAFA"/>
<path d="M461.384 714.181L504.927 757.723L652.736 609.914C655.593 607.057 657.859 603.664 659.403 599.93C660.947 596.196 661.739 592.194 661.734 588.153C661.729 584.112 660.927 580.112 659.373 576.382C657.82 572.652 655.546 569.265 652.682 566.415C646.921 560.654 639.107 557.417 630.959 557.417C622.812 557.417 614.998 560.654 609.237 566.415L461.384 714.181Z" fill="#5B8AFF"/>
<path d="M461.384 714.181L504.927 757.723L652.736 609.914C655.593 607.057 657.859 603.664 659.403 599.93C660.947 596.196 661.739 592.194 661.734 588.153C661.729 584.112 660.927 580.112 659.373 576.382C657.82 572.652 655.546 569.265 652.682 566.415C646.921 560.654 639.107 557.417 630.959 557.417C622.812 557.417 614.998 560.654 609.237 566.415L461.384 714.181Z" fill="#455A64"/>
<path d="M611.561 564.004C611.724 563.841 621.619 573.496 633.566 585.444C645.513 597.391 655.169 607.285 655.006 607.448C654.843 607.611 645.003 598.01 633.001 586.008C621 574.007 611.409 564.156 611.561 564.004Z" fill="#263238"/>
<path d="M573.829 601.736C573.981 601.583 583.886 611.228 595.834 623.175C607.781 635.123 617.426 645.028 617.274 645.18C617.122 645.332 607.27 635.742 595.269 623.74C583.267 611.739 573.666 601.898 573.829 601.736Z" fill="#263238"/>
<path d="M585.896 613.802C585.744 613.65 594.064 605.07 604.48 594.654C614.896 584.238 623.476 575.918 623.628 576.07C623.78 576.223 615.471 584.792 605.045 595.219C594.618 605.645 586.059 613.965 585.896 613.802Z" fill="#263238"/>
<path d="M617.752 592.156C617.449 592.459 617.243 592.845 617.159 593.265C617.075 593.685 617.118 594.12 617.282 594.516C617.446 594.912 617.724 595.25 618.08 595.488C618.436 595.726 618.855 595.853 619.283 595.853C619.712 595.853 620.13 595.726 620.486 595.488C620.843 595.25 621.12 594.912 621.284 594.516C621.448 594.12 621.491 593.685 621.407 593.265C621.324 592.845 621.118 592.459 620.815 592.156C620.408 591.75 619.858 591.522 619.283 591.522C618.709 591.522 618.158 591.75 617.752 592.156Z" fill="#263238"/>
<path d="M604.707 605.2C604.404 605.503 604.198 605.889 604.114 606.309C604.031 606.729 604.073 607.165 604.237 607.561C604.401 607.956 604.679 608.295 605.035 608.533C605.391 608.771 605.81 608.898 606.238 608.898C606.667 608.898 607.085 608.771 607.442 608.533C607.798 608.295 608.075 607.956 608.239 607.561C608.403 607.165 608.446 606.729 608.362 606.309C608.279 605.889 608.073 605.503 607.77 605.2C607.364 604.794 606.813 604.566 606.238 604.566C605.664 604.566 605.113 604.794 604.707 605.2Z" fill="#263238"/>
<path d="M497.04 678.524C497.192 678.372 507.097 688.017 519.045 699.964C530.992 711.911 540.637 721.817 540.485 721.969C540.332 722.121 530.481 712.53 518.48 700.529C506.478 688.527 496.92 678.644 497.04 678.524Z" fill="#263238"/>
<path d="M509.107 690.591C508.955 690.439 517.275 681.858 527.691 671.443C538.107 661.027 546.687 652.707 546.839 652.859C546.991 653.011 538.758 661.591 528.332 672.018C517.905 682.445 509.27 690.754 509.107 690.591Z" fill="#263238"/>
<path d="M541.006 671.964C541.851 672.81 543.223 672.81 544.069 671.964C544.914 671.118 544.914 669.747 544.069 668.901C543.223 668.055 541.851 668.055 541.006 668.901C540.16 669.747 540.16 671.118 541.006 671.964Z" fill="#263238"/>
<path d="M527.951 685.019C528.797 685.864 530.168 685.864 531.014 685.019C531.86 684.173 531.86 682.802 531.014 681.956C530.168 681.11 528.797 681.11 527.951 681.956C527.105 682.802 527.105 684.173 527.951 685.019Z" fill="#263238"/>
<path d="M578.467 683.922C578.315 684.074 568.464 674.483 556.462 662.482C544.461 650.48 534.87 640.629 535.022 640.477C535.174 640.325 545.08 649.97 557.027 661.917C568.974 673.864 578.673 683.715 578.467 683.922Z" fill="#263238"/>
<path d="M566.389 671.844C566.237 671.692 574.556 663.112 584.972 652.696C595.388 642.28 603.968 633.96 604.12 634.112C604.272 634.265 595.964 642.834 585.537 653.261C575.11 663.687 566.552 672.007 566.389 671.844Z" fill="#263238"/>
<path d="M588.089 639.934C587.784 640.234 587.398 640.438 586.978 640.519C586.558 640.6 586.123 640.554 585.729 640.388C585.335 640.223 584.998 639.944 584.762 639.587C584.526 639.231 584.401 638.812 584.403 638.384C584.404 637.957 584.532 637.539 584.771 637.184C585.009 636.829 585.348 636.553 585.743 636.39C586.138 636.227 586.573 636.184 586.993 636.268C587.412 636.352 587.797 636.558 588.1 636.86C588.302 637.062 588.462 637.303 588.571 637.567C588.68 637.831 588.735 638.114 588.734 638.4C588.733 638.685 588.676 638.968 588.565 639.231C588.454 639.495 588.292 639.734 588.089 639.934Z" fill="#263238"/>
<path d="M575.045 652.979C574.742 653.281 574.356 653.488 573.936 653.571C573.516 653.655 573.081 653.612 572.685 653.448C572.289 653.284 571.951 653.007 571.713 652.65C571.475 652.294 571.348 651.875 571.348 651.447C571.348 651.019 571.475 650.6 571.713 650.244C571.951 649.888 572.289 649.61 572.685 649.446C573.081 649.282 573.516 649.239 573.936 649.323C574.356 649.407 574.742 649.613 575.045 649.916C575.246 650.117 575.406 650.356 575.515 650.618C575.623 650.881 575.679 651.163 575.679 651.447C575.679 651.732 575.623 652.013 575.515 652.276C575.406 652.539 575.246 652.777 575.045 652.979Z" fill="#263238"/>
<path d="M648.457 608.372C648.37 608.285 649.423 606.906 650.933 604.549C652.905 601.493 654.502 598.211 655.69 594.774C656.32 592.883 656.774 590.937 657.048 588.963C657.256 587.35 657.314 585.721 657.222 584.097C657.048 581.317 656.537 579.633 656.689 579.59C656.899 579.951 657.049 580.343 657.135 580.752C657.298 581.207 657.418 581.676 657.493 582.153C657.624 582.774 657.722 583.401 657.786 584.032C657.957 585.697 657.953 587.375 657.776 589.039C657.532 591.069 657.088 593.07 656.45 595.013C655.243 598.518 653.538 601.832 651.389 604.853C650.752 605.774 650.063 606.659 649.326 607.503C649.092 607.844 648.797 608.138 648.457 608.372Z" fill="white"/>
<path d="M651.236 570.423C651.399 570.26 652.148 571.009 652.854 572.041C653.56 573.073 654.005 573.974 653.821 574.115C653.636 574.257 652.919 573.518 652.202 572.497C651.486 571.476 651.062 570.553 651.236 570.423Z" fill="white"/>
<path d="M641.234 438.558L597.137 452.112C584.144 456.099 572.326 463.211 562.718 472.825L362.167 673.376L371.834 717.255L390.395 735.817L432.482 743.691L632.154 544.019C641.35 534.78 648.251 523.512 652.301 511.121L667.67 464.668C668.522 462.088 668.64 459.322 668.011 456.679C667.382 454.036 666.03 451.62 664.107 449.701L656.418 442.011C654.466 440.069 652.007 438.714 649.322 438.103C646.637 437.493 643.834 437.65 641.234 438.558Z" fill="#5B8AFF"/>
<path d="M378.155 657.388L310.816 590.049C310.816 590.049 340.499 560.365 389.787 567.403C439.075 574.441 497.877 537.687 497.877 537.687L378.155 657.388Z" fill="#5B8AFF"/>
<path d="M448.448 727.681L515.788 795.021C515.788 795.021 545.471 765.337 538.433 716.049C531.395 666.761 568.16 607.97 568.16 607.97L448.448 727.681Z" fill="#5B8AFF"/>
<path opacity="0.2" d="M378.155 657.388L310.816 590.049C310.816 590.049 340.499 560.365 389.787 567.403C439.075 574.441 497.877 537.687 497.877 537.687L378.155 657.388Z" fill="black"/>
<path opacity="0.2" d="M448.448 727.681L515.788 795.021C515.788 795.021 545.471 765.337 538.433 716.049C531.395 666.761 568.16 607.97 568.16 607.97L448.448 727.681Z" fill="black"/>
<path d="M487.927 557.52C487.775 557.368 502.448 542.433 520.717 524.165C538.985 505.897 553.919 491.223 554.071 491.375C554.224 491.527 539.604 506.516 521.379 524.741C503.154 542.966 488.079 557.672 487.927 557.52Z" fill="#FAFAFA"/>
<path d="M574.426 472.498C573.732 473.757 572.808 474.874 571.7 475.789C570.784 476.897 569.668 477.822 568.409 478.515C569.11 477.262 570.034 476.147 571.135 475.225C572.058 474.124 573.173 473.2 574.426 472.498Z" fill="#FAFAFA"/>
<path d="M647.37 443.021C647.446 443.228 633.598 447.865 616.459 453.383C599.32 458.9 585.364 463.212 585.298 462.995C585.233 462.778 599.07 458.151 616.209 452.633C633.348 447.116 647.305 442.804 647.37 443.021Z" fill="#FAFAFA"/>
<path d="M459.266 561.701C459.194 561.802 459.106 561.89 459.005 561.962C458.799 562.168 458.473 562.342 458.104 562.603L456.627 563.602C455.957 564.072 455.257 564.496 454.53 564.873C450.017 567.475 445.187 569.486 440.161 570.857C432.704 572.856 425.046 574.007 417.331 574.289C408.631 574.713 399.073 574.387 389.07 573.942C379.684 573.491 370.277 573.964 360.983 575.354C356.937 575.987 352.927 576.835 348.971 577.895C345.529 578.851 342.139 579.986 338.816 581.295C334.004 583.191 329.372 585.518 324.978 588.246C323.404 589.169 322.274 590.038 321.449 590.538L320.525 591.135C320.426 591.218 320.312 591.281 320.189 591.32C320.263 591.221 320.351 591.133 320.449 591.059L321.329 590.397C322.122 589.843 323.23 588.93 324.794 587.953C329.139 585.104 333.747 582.678 338.555 580.708C341.881 579.355 345.278 578.184 348.732 577.2C352.707 576.106 356.739 575.229 360.809 574.572C370.153 573.139 379.617 572.64 389.059 573.084C399.051 573.54 408.588 573.888 417.255 573.497C424.934 573.268 432.565 572.193 440.009 570.292C445.009 568.982 449.833 567.074 454.378 564.612C455.105 564.247 455.812 563.845 456.496 563.407C457.083 563.037 457.582 562.733 458.006 562.462C458.429 562.19 458.701 562.049 458.962 561.897C459.052 561.816 459.155 561.75 459.266 561.701Z" fill="#FAFAFA"/>
<path d="M597.116 520.32L585.505 508.71C582.129 505.334 580.232 500.755 580.232 495.981C580.232 491.206 582.129 486.627 585.505 483.251C588.881 479.875 593.46 477.979 598.234 477.979C603.009 477.979 607.588 479.875 610.964 483.251L622.574 494.862C624.248 496.532 625.575 498.517 626.481 500.701C627.387 502.885 627.853 505.227 627.853 507.591C627.853 509.956 627.387 512.297 626.481 514.481C625.575 516.666 624.248 518.65 622.574 520.32C619.198 523.696 614.619 525.593 609.845 525.593C605.071 525.593 600.492 523.696 597.116 520.32Z" fill="white"/>
<path opacity="0.4" d="M362.166 673.376L371.843 717.244L390.405 735.805L432.459 743.669L439.508 736.62L369.215 666.327L362.166 673.376Z" fill="black"/>
</svg>
