<svg width="136" height="57" viewBox="0 0 136 57" fill="none" xmlns="http://www.w3.org/2000/svg">
<g clip-path="url(#clip0_325_5309)">
<path d="M32.2425 55.9563C29.7179 55.9563 27.6648 53.8943 27.6648 51.3605V34.8632C27.6648 31.9566 27.0466 29.6642 25.8282 28.0493C24.6055 26.4286 22.6433 25.6073 19.9974 25.6073C18.4391 25.6073 16.9919 26.0041 15.6973 26.786C14.4005 27.565 13.3739 28.6868 12.6474 30.1215C11.9224 31.5511 11.5541 33.2775 11.5541 35.2527V51.3605C11.5541 53.8951 9.50025 55.9563 6.9764 55.9563H4.65089C2.12632 55.9563 0.0732423 53.8943 0.0732423 51.3605V9.33838C0.0725158 4.22904 4.21209 0.072998 9.30119 0.072998H10.3866C11.0303 0.072998 11.5541 0.598885 11.5541 1.24512V22.6628L11.6877 22.4505C12.9184 20.4994 14.609 18.9108 16.7129 17.7292C18.8168 16.5476 21.316 15.9488 24.1399 15.9488C27.4251 15.9488 30.2105 16.6519 32.4183 18.0385C34.621 19.4243 36.3108 21.4681 37.4413 24.1143C37.49 24.2295 37.5423 24.3535 37.5895 24.4775C37.4914 25.0121 37.4413 25.5745 37.4413 26.1485V39.3767C37.4413 42.9681 37.9723 46.0775 39.0207 48.618C39.1035 48.8185 39.1456 49.0257 39.1456 49.2321V51.3605C39.1456 53.8951 37.0918 55.9563 34.568 55.9563H32.2425Z" fill="#00184F"/>
<path d="M52.627 56.8906C49.4777 56.8906 46.7838 56.2327 44.621 54.9359C42.4706 53.6448 40.8149 51.7163 39.7005 49.2029C39.683 49.1671 39.6758 49.1489 39.6685 49.1307C38.5606 46.5924 37.999 43.451 37.999 39.7916V26.5635C37.999 26.0172 38.047 25.4825 38.1414 24.9749L38.1494 24.9304V24.9238C38.9246 20.7481 42.5687 17.7124 46.8129 17.7124H47.2793C48.037 17.7124 48.6531 18.3309 48.6531 19.0917V38.6239C48.6531 41.6282 49.2873 43.9681 50.5383 45.5771C51.817 47.2241 53.8759 48.0599 56.6569 48.0599C58.3358 48.0599 59.8644 47.6726 61.1989 46.9082C62.5466 46.1336 63.6036 44.9907 64.3389 43.5108C65.0668 42.0491 65.4359 40.2482 65.4359 38.1578V19.0917C65.4359 18.3309 66.0519 17.7124 66.8097 17.7124H76.0921V55.957H72.6943C69.3575 55.957 66.4682 53.4596 65.9735 50.1474L65.757 48.6996L65.0661 49.9892C64.5183 51.011 63.8398 51.9468 63.0501 52.7696C62.2647 53.5916 61.3326 54.3348 60.2814 54.9789C58.1963 56.2487 55.6216 56.8921 52.6277 56.8921L52.627 56.8906Z" fill="#00184F"/>
<path d="M99.1319 56.8907C97.2387 56.8907 95.5118 56.6565 93.9993 56.1934C92.4881 55.7295 91.1398 55.0657 89.9912 54.2197C88.8375 53.3692 87.8378 52.3925 87.0205 51.3152L86.9326 51.1993L86.8934 51.3393C86.1255 54.057 83.6256 55.9556 80.8126 55.9556H76.6513V16.9984C76.6513 16.854 76.5343 16.7373 76.3912 16.7373H75.4111V1.86875C75.4111 0.879707 76.2125 0.0751953 77.1976 0.0751953H85.104C86.0892 0.0751953 86.8905 0.879707 86.8905 1.86875V22.1748L87.0227 21.9874C88.2527 20.2391 89.8619 18.781 91.8052 17.6519C93.7501 16.5214 96.1896 15.9488 99.0564 15.9488C102.59 15.9488 105.798 16.8481 108.589 18.622C111.382 20.3988 113.629 22.8503 115.267 25.9093C115.838 26.9764 116.295 28.0508 116.662 29.1923L116.652 31.7043C116.637 35.7086 116.622 39.8493 116.627 43.7916C116.27 44.8748 115.812 45.9433 115.267 46.9674C113.628 50.0541 111.395 52.5063 108.629 54.2547C105.859 56.0037 102.664 56.8907 99.1327 56.8907H99.1319ZM96.2456 26.0647C94.3305 26.0647 92.6102 26.5271 91.1318 27.4388C89.6534 28.3491 88.4844 29.5883 87.6562 31.1222C86.8273 32.6576 86.4074 34.4891 86.4074 36.5656C86.4074 38.6422 86.8273 40.3467 87.6555 41.9295C88.483 43.5167 89.6534 44.7573 91.1332 45.6166C92.6102 46.475 94.3298 46.9105 96.2456 46.9105C98.1613 46.9105 99.804 46.4619 101.282 45.5764C102.759 44.6939 103.929 43.4671 104.759 41.9295C105.588 40.3942 106.008 38.5897 106.008 36.5649C106.008 34.5401 105.588 32.7108 104.759 31.1222C103.929 29.5351 102.759 28.282 101.282 27.398C99.801 26.5125 98.1069 26.0639 96.2456 26.0639V26.0647Z" fill="#00184F"/>
<path d="M118.917 56.5747C118.367 56.5747 117.646 56.4785 117.341 56.0219C117.313 55.981 117.299 55.9285 117.297 55.8665C117.225 53.1313 117.188 49.5238 117.183 44.8389C117.178 40.9148 117.193 36.8033 117.208 32.8267L117.218 30.2293C117.231 25.8888 117.235 22.4643 117.21 19.8633C117.212 19.5883 117.358 19.2419 117.6 18.9377C118.024 18.4162 118.548 18.317 119.369 18.317C119.526 18.317 119.692 18.3207 119.852 18.3236H119.896L123.319 18.3243C123.54 18.3236 123.781 18.3229 124.033 18.3229L126.11 18.325C126.337 18.325 126.544 18.325 126.719 18.3236L126.955 18.3258C127.224 18.3258 127.441 18.107 127.441 17.8385V11.7715C127.441 11.355 127.779 11.0159 128.194 11.0159H135.174C135.589 11.0159 135.927 11.355 135.927 11.7715V18.7794C135.927 19.1959 135.589 19.5351 135.174 19.5351H128.326C128.059 19.5351 127.841 19.7532 127.841 20.0216C127.84 21.7532 127.852 24.3089 127.865 27.0149C127.905 35.2249 127.959 46.4676 127.724 49.1474L127.72 49.1773C127.081 53.232 123.504 56.4033 119.4 56.5521C119.222 56.5667 119.065 56.574 118.918 56.574L118.917 56.5747Z" fill="#F38A12"/>
</g>
<defs>
<clipPath id="clip0_325_5309">
<rect width="136" height="57" fill="white"/>
</clipPath>
</defs>
</svg>
