<svg width="136" height="58" viewBox="0 0 136 58" fill="none" xmlns="http://www.w3.org/2000/svg">
<g clip-path="url(#clip0_325_4987)">
<path d="M32.2435 56.4561C29.7189 56.4561 27.6658 54.3941 27.6658 51.8602V35.363C27.6658 32.4564 27.0476 30.1639 25.8292 28.5491C24.6065 26.9284 22.6443 26.1071 19.9984 26.1071C18.44 26.1071 16.9929 26.5039 15.6982 27.2858C14.4014 28.0647 13.3749 29.1865 12.6484 30.6212C11.9234 32.0508 11.555 33.7773 11.555 35.7525V51.8602C11.555 54.3948 9.50123 56.4561 6.97738 56.4561H4.65187C2.1273 56.4561 0.0742188 54.3941 0.0742188 51.8602V9.83814C0.0734923 4.72879 4.21306 0.572754 9.30217 0.572754H10.3876C11.0312 0.572754 11.555 1.09864 11.555 1.74488V23.1625L11.6887 22.9503C12.9194 20.9992 14.6099 19.4106 16.7139 18.229C18.8178 17.0474 21.317 16.4486 24.1408 16.4486C27.4261 16.4486 30.2114 17.1517 32.4193 18.5382C34.622 19.9241 36.3118 21.9678 37.4423 24.614C37.4909 24.7293 37.5432 24.8533 37.5905 24.9773C37.4924 25.5119 37.4423 26.0743 37.4423 26.6483V39.8764C37.4423 43.4679 37.9733 46.5773 39.0217 49.1177C39.1045 49.3183 39.1466 49.5254 39.1466 49.7319V51.8602C39.1466 54.3948 37.0928 56.4561 34.569 56.4561H32.2435Z" fill="#00184F"/>
<path d="M52.628 57.3906C49.4786 57.3906 46.7848 56.7327 44.622 55.4359C42.4716 54.1448 40.8159 52.2163 39.7015 49.7029C39.684 49.6671 39.6768 49.6489 39.6695 49.6307C38.5616 47.0924 38 43.951 38 40.2916V27.0635C38 26.5172 38.048 25.9825 38.1424 25.4749L38.1504 25.4304V25.4238C38.9256 21.2481 42.5697 18.2124 46.8138 18.2124H47.2803C48.038 18.2124 48.6541 18.8309 48.6541 19.5917V39.1239C48.6541 42.1282 49.2883 44.4681 50.5393 46.0771C51.818 47.7241 53.8768 48.5599 56.6579 48.5599C58.3368 48.5599 59.8653 48.1726 61.1999 47.4082C62.5476 46.6336 63.6046 45.4907 64.3398 44.0108C65.0678 42.5491 65.4368 40.7482 65.4368 38.6578V19.5917C65.4368 18.8309 66.0529 18.2124 66.8106 18.2124H76.0931V56.457H72.6953C69.3585 56.457 66.4692 53.9596 65.9744 50.6474L65.758 49.1996L65.0671 50.4892C64.5193 51.511 63.8407 52.4468 63.051 53.2696C62.2657 54.0916 61.3336 54.8348 60.2824 55.4789C58.1973 56.7487 55.6226 57.3921 52.6287 57.3921L52.628 57.3906Z" fill="#00184F"/>
<path d="M99.131 57.3907C97.2377 57.3907 95.5108 57.1565 93.9983 56.6934C92.4872 56.2295 91.1388 55.5657 89.9902 54.7197C88.8365 53.8692 87.8369 52.8925 87.0196 51.8152L86.9317 51.6993L86.8924 51.8393C86.1245 54.557 83.6246 56.4556 80.8117 56.4556H76.6503V17.4984C76.6503 17.354 76.5333 17.2373 76.3902 17.2373H75.4102V2.36875C75.4102 1.37971 76.2115 0.575195 77.1966 0.575195H85.1031C86.0882 0.575195 86.8895 1.37971 86.8895 2.36875V22.6748L87.0217 22.4874C88.2517 20.7391 89.8609 19.281 91.8043 18.1519C93.7491 17.0214 96.1887 16.4488 99.0554 16.4488C102.589 16.4488 105.797 17.3481 108.588 19.122C111.381 20.8988 113.628 23.3503 115.266 26.4093C115.837 27.4764 116.294 28.5508 116.661 29.6923L116.651 32.2043C116.636 36.2086 116.621 40.3493 116.626 44.2916C116.269 45.3748 115.811 46.4433 115.266 47.4674C113.627 50.5541 111.394 53.0063 108.628 54.7547C105.858 56.5037 102.663 57.3907 99.1317 57.3907H99.131ZM96.2446 26.5647C94.3296 26.5647 92.6092 27.0271 91.1308 27.9388C89.6524 28.8491 88.4835 30.0883 87.6552 31.6222C86.8263 33.1576 86.4064 34.9891 86.4064 37.0656C86.4064 39.1422 86.8263 40.8467 87.6545 42.4295C88.482 44.0167 89.6524 45.2573 91.1323 46.1166C92.6092 46.975 94.3288 47.4105 96.2446 47.4105C98.1604 47.4105 99.803 46.9619 101.281 46.0764C102.758 45.1939 103.928 43.9671 104.758 42.4295C105.587 40.8942 106.007 39.0897 106.007 37.0649C106.007 35.0401 105.587 33.2108 104.758 31.6222C103.928 30.0351 102.758 28.782 101.281 27.898C99.8001 27.0125 98.1059 26.5639 96.2446 26.5639V26.5647Z" fill="#00184F"/>
<path d="M118.917 57.075C118.367 57.075 117.646 56.9787 117.341 56.5221C117.313 56.4813 117.299 56.4287 117.297 56.3667C117.225 53.6316 117.188 50.024 117.183 45.3392C117.178 41.4151 117.193 37.3035 117.208 33.3269L117.218 30.7296C117.231 26.389 117.235 22.9645 117.21 20.3636C117.212 20.0886 117.358 19.7421 117.6 19.438C118.024 18.9165 118.548 18.8173 119.369 18.8173C119.526 18.8173 119.692 18.8209 119.852 18.8238H119.896L123.319 18.8246C123.54 18.8238 123.781 18.8231 124.033 18.8231L126.11 18.8253C126.337 18.8253 126.544 18.8253 126.719 18.8238L126.955 18.826C127.224 18.826 127.441 18.6072 127.441 18.3388V12.2718C127.441 11.8553 127.779 11.5161 128.194 11.5161H135.174C135.589 11.5161 135.927 11.8553 135.927 12.2718V19.2797C135.927 19.6962 135.589 20.0353 135.174 20.0353H128.326C128.059 20.0353 127.841 20.2534 127.841 20.5218C127.84 22.2534 127.852 24.8092 127.865 27.5152C127.905 35.7251 127.959 46.9679 127.724 49.6477L127.72 49.6776C127.081 53.7322 123.504 56.9036 119.4 57.0524C119.222 57.067 119.065 57.0742 118.918 57.0742L118.917 57.075Z" fill="#F38A12"/>
</g>
<defs>
<clipPath id="clip0_325_4987">
<rect width="136" height="57" fill="white" transform="translate(0 0.5)"/>
</clipPath>
</defs>
</svg>
